<?xml version="1.0" standalone="no"?>
<!DOCTYPE svg PUBLIC "-//W3C//DTD SVG 20010904//EN"
 "http://www.w3.org/TR/2001/REC-SVG-20010904/DTD/svg10.dtd">
<svg version="1.0" xmlns="http://www.w3.org/2000/svg"
 width="700.000000pt" height="700.000000pt" viewBox="0 0 700.000000 700.000000"
 preserveAspectRatio="xMidYMid meet">
<metadata>
Created by potrace 1.14, written by Peter Selinger 2001-2017
</metadata>
<g transform="translate(0.000000,700.000000) scale(0.100000,-0.100000)"
fill="#000000" stroke="none">
<path d="M3978 6986 c-27 -28 -86 -95 -178 -201 -52 -60 -107 -124 -121 -140
-15 -17 -61 -70 -103 -119 l-75 -89 47 -56 c26 -31 50 -58 53 -61 3 -3 32 -36
64 -75 32 -38 61 -72 64 -75 4 -3 26 -30 51 -60 25 -30 47 -57 50 -60 3 -3 46
-52 95 -110 48 -58 97 -115 108 -127 l19 -21 -74 2 c-125 3 -118 14 -87 -149
41 -210 41 -210 34 -204 -3 4 -35 -4 -71 -17 -299 -108 -577 -286 -807 -516
l-98 -98 -72 7 c-174 17 -481 6 -621 -23 -11 -2 -37 -7 -56 -10 -19 -3 -53
-10 -75 -16 -22 -5 -47 -11 -55 -13 -97 -20 -306 -95 -445 -159 -137 -64 -342
-190 -447 -274 -379 -304 -639 -664 -800 -1107 -40 -110 -92 -315 -104 -410
-2 -22 -6 -45 -9 -52 -10 -29 -20 -193 -19 -338 0 -276 16 -387 98 -698 24
-92 103 -282 171 -413 113 -218 252 -409 426 -584 116 -117 141 -139 265 -233
313 -236 662 -386 1054 -454 131 -22 186 -26 360 -27 228 -1 302 4 470 34 389
70 760 241 1080 497 109 87 287 266 369 370 70 90 201 281 201 293 0 8 37 16
120 25 714 80 1382 568 1695 1239 73 155 148 391 170 536 4 25 9 54 11 65 18
94 25 395 11 530 -6 70 -33 235 -43 267 -3 9 -7 26 -9 39 -29 152 -143 424
-251 602 -265 435 -663 755 -1157 933 -37 13 -46 21 -42 35 3 9 7 26 9 36 7
37 18 103 17 108 0 2 5 19 10 37 9 31 18 80 22 122 2 18 -5 20 -86 19 -48 0
-86 3 -85 7 2 5 24 32 49 62 25 29 130 152 233 273 103 121 201 235 217 253
16 19 26 39 22 45 -3 6 -1 7 5 3 7 -4 12 -4 12 -1 0 6 -115 141 -225 265 -22
25 -51 59 -65 75 -14 17 -63 74 -110 127 l-84 98 -597 0 c-489 0 -600 -3 -611
-14z m812 -1929 c22 -5 110 -18 125 -19 2 0 37 -9 77 -19 40 -11 78 -21 83
-22 101 -26 314 -126 430 -202 285 -185 503 -447 637 -762 45 -106 91 -256
104 -342 3 -18 7 -43 10 -55 20 -102 22 -354 5 -476 -16 -113 -19 -126 -52
-243 -137 -489 -488 -885 -969 -1095 -50 -22 -129 -50 -175 -62 -16 -5 -44
-13 -61 -18 l-31 -10 7 32 c4 17 10 38 13 46 3 8 8 29 11 45 3 17 12 62 20
100 8 39 18 97 21 130 4 33 9 69 12 80 9 41 11 393 2 470 -25 227 -56 368
-121 558 -215 636 -707 1169 -1329 1437 l-107 46 74 54 c192 142 423 250 633
296 43 9 184 33 221 36 48 5 329 1 360 -5z m-2158 -716 c3 -1 -2 -18 -12 -38
-106 -225 -174 -475 -197 -728 -13 -142 -6 -414 13 -507 2 -13 9 -50 14 -83 5
-33 21 -103 36 -155 14 -52 27 -102 29 -110 10 -43 83 -218 131 -313 243 -481
655 -856 1154 -1052 103 -40 329 -105 367 -105 24 0 24 0 -9 -46 -18 -26 -80
-93 -137 -150 -249 -250 -537 -416 -886 -510 -70 -19 -180 -38 -298 -52 -72
-9 -329 -8 -387 1 -19 3 -57 9 -85 12 -87 12 -247 52 -354 90 -457 160 -847
500 -1071 935 -452 880 -174 1941 655 2494 191 128 477 247 675 282 14 2 39 6
55 9 17 3 41 7 55 10 14 3 61 8 105 11 44 3 81 6 82 8 2 1 41 0 65 -3z m676
-108 c12 -3 25 -9 28 -14 3 -5 12 -9 20 -9 31 0 254 -115 361 -186 412 -274
697 -680 813 -1157 32 -129 35 -148 46 -267 13 -132 6 -393 -11 -475 -3 -11
-7 -33 -10 -49 -2 -16 -9 -53 -15 -83 -6 -29 -11 -54 -11 -55 0 -2 -17 -55
-38 -118 l-38 -115 -49 0 c-145 1 -390 72 -579 168 -676 343 -1043 1096 -895
1837 35 174 113 377 206 536 l18 32 66 -20 c36 -11 75 -22 88 -25z"/>
</g>
</svg>
