<?xml version="1.0" encoding="utf-8"?>
<svg viewBox="0.778 37.982 99.222 24.284" xmlns="http://www.w3.org/2000/svg">
  <g transform="matrix(1, 0, 0, 1, 0, 1.7763568394002505e-15)">
  <path fill="none" d="M57.351,52.993c0.113,0.221,0.773,1.414,1.018,0.774c0.178-0.465-0.347-1.142-0.642-1.457   c-0.227-0.242-0.491-0.441-0.777-0.6c-0.006-0.001-0.013-0.002-0.019-0.003C57.007,52.153,57.146,52.59,57.351,52.993z"/>
    <path fill="#483b35" d="M94.736,44.727c-0.499-0.495-1.322-0.35-1.897-0.1c-0.748,0.325-1.28,0.92-1.595,1.661   c-0.159,0.072-0.318,0.145-0.478,0.216c0.204-0.442,0.357-1.025-0.033-1.403c-0.501-0.486-1.083-0.036-1.384,0.414   c-0.365,0.546-0.559,1.187-0.603,1.839c-0.598,0.239-1.2,0.467-1.805,0.686c0.173-0.256,0.324-0.527,0.449-0.813   c0.228-0.521,0.349-1.312-0.356-1.532c-0.647-0.202-1.156,0.447-1.428,0.932c-0.353,0.628-0.526,1.335-0.529,2.051   c-0.795,0.257-1.595,0.499-2.4,0.723c0.278-0.283,0.537-0.585,0.774-0.911c0.387-0.53,0.785-1.512-0.063-1.854   c-0.74-0.299-1.496,0.485-1.907,1.004c-0.533,0.673-0.831,1.446-0.938,2.293c-0.001,0.006,0,0.011,0,0.017   c-0.921,0.22-1.847,0.417-2.777,0.593c0.402-0.533,0.767-1.094,1.08-1.683c0.372-0.698,0.528-1.807-0.501-2.001   c-0.93-0.175-1.616,0.864-2.003,1.557c-0.43,0.77-0.676,1.621-0.74,2.495c-1.037,0.157-2.078,0.287-3.122,0.389   c0.378-0.335,0.719-0.71,1.021-1.122c0.416-0.569,1.244-1.737,0.652-2.429c-0.75-0.877-1.811,0.473-2.231,1.038   c-0.575,0.774-0.962,1.678-1.146,2.623c-0.016,0.012-0.031,0.024-0.045,0.037c-1.052,0.073-2.105,0.116-3.159,0.133   c0.522-0.304,1.008-0.66,1.41-1.118c0.543-0.619,1.311-1.883,0.508-2.608c-0.876-0.791-1.991,0.377-2.531,1.016   c-0.672,0.795-1.164,1.714-1.46,2.708c-1.008-0.018-2.016-0.062-3.022-0.131c0.383-0.266,0.73-0.574,1.041-0.941   c0.457-0.541,1.082-1.333,0.986-2.091c-0.115-0.905-1.079-0.905-1.68-0.475c-0.019,0.014-0.035,0.029-0.051,0.044   c-0.014,0.009-0.028,0.016-0.041,0.026c-0.786,0.624-1.55,1.551-1.87,2.511c-0.084,0.254-0.121,0.525-0.085,0.783   c-1.016-0.1-2.029-0.227-3.038-0.381c0.439-0.282,0.842-0.617,1.194-1.012c0.542-0.61,1.358-1.709,0.446-2.381   c-0.829-0.61-1.836,0.135-2.385,0.772c-0.573,0.665-0.919,1.465-1.027,2.325c-0.706-0.13-1.41-0.272-2.112-0.428   c-0.567-0.126-0.809,0.746-0.24,0.872c0.791,0.175,1.586,0.332,2.383,0.475c0.114,0.884,0.4,1.741,0.916,2.476   c0.467,0.666,1.346,1.223,2.037,0.491c0.633-0.671,0.274-1.678-0.18-2.338c-0.053-0.076-0.109-0.149-0.166-0.221   c0.677,0.091,1.356,0.169,2.036,0.237c0.01,0.187,0.054,0.381,0.118,0.576c0.18,0.555,0.434,1.153,0.77,1.633   c0.371,0.53,0.943,1.092,1.614,1.188c0.723,0.104,1.106-0.538,1.054-1.184c-0.058-0.723-0.459-1.443-0.92-1.987   c-0.007-0.008-0.015-0.015-0.022-0.023c0.832,0.046,1.665,0.075,2.499,0.087c0.324,0.821,0.841,1.556,1.528,2.118   c0.595,0.486,1.909,1.417,2.653,0.758c0.769-0.682-0.178-1.926-0.662-2.469c-0.14-0.157-0.292-0.302-0.45-0.439   c0.664-0.024,1.328-0.058,1.991-0.104c0.258,0.618,0.632,1.182,1.125,1.642c0.536,0.501,1.433,1.096,2.105,0.457   c0.652-0.62,0.094-1.534-0.414-2.031c-0.106-0.104-0.22-0.199-0.336-0.291c0.856-0.094,1.71-0.206,2.562-0.336   c0.227,0.767,0.676,1.464,1.3,1.971c0.601,0.487,1.745,1.052,2.196,0.07c0.342-0.744-0.214-1.67-0.733-2.184   c-0.103-0.102-0.213-0.193-0.328-0.28c0.856-0.167,1.707-0.353,2.555-0.556c0.327,0.623,0.856,1.136,1.497,1.432   c0.574,0.265,1.5,0.524,2.052,0.082c0.724-0.58,0.024-1.359-0.497-1.751c-0.195-0.147-0.398-0.28-0.608-0.403   c0.234-0.067,0.468-0.133,0.701-0.203c0.481-0.143,0.959-0.295,1.435-0.451c0.581,0.613,2.939,2.613,3.428,1.15   c0.207-0.618-0.343-1.252-0.775-1.618c-0.136-0.116-0.279-0.218-0.427-0.307c0.441-0.164,0.881-0.332,1.319-0.506   c0.27,0.491,0.664,0.907,1.142,1.205c0.46,0.286,1.277,0.593,1.512-0.134c0.172-0.535-0.266-1.16-0.632-1.508   c-0.104-0.099-0.216-0.187-0.332-0.265c0.363-0.157,0.725-0.318,1.085-0.482c0.853,0.018,1.711-0.182,2.448-0.618   C94.772,46.087,95.352,45.338,94.736,44.727z M81.912,48.597c0.2-0.337,0.61-0.957,1.013-1.07c0.045-0.012,0.066-0.046,0.071-0.055   c-0.004,0.007-0.016,0.036-0.034,0.107c-0.025,0.094-0.105,0.186-0.157,0.265c-0.15,0.224-0.318,0.435-0.497,0.638   c-0.204,0.232-0.423,0.45-0.654,0.656C81.726,48.951,81.81,48.769,81.912,48.597z M77.97,47.806c0.372-0.182,0.29,0.18,0.19,0.417   c-0.138,0.325-0.349,0.64-0.536,0.938c-0.325,0.517-0.689,1.004-1.084,1.469c0.056-0.411,0.159-0.814,0.316-1.204   C77.058,48.923,77.455,48.057,77.97,47.806z M72.902,49.002c0.093-0.108,0.191-0.213,0.292-0.314   c0.067-0.067,0.136-0.133,0.207-0.197c0.046-0.218,0.058-0.242,0.035-0.072c-0.254,0.82-0.809,1.557-1.475,2.146   c0.098-0.248,0.214-0.489,0.35-0.723C72.483,49.545,72.678,49.262,72.902,49.002z M67.27,49.942c0.16-0.231,1.35-1.749,1.634-1.372   c0.157,0.21-0.185,0.731-0.292,0.897c-0.207,0.324-0.48,0.605-0.777,0.849c-0.362,0.297-0.768,0.535-1.187,0.747   C66.818,50.672,67.024,50.297,67.27,49.942z M62.199,49.923c0.326-0.469,0.723-0.911,1.17-1.268   c0.049-0.037,0.104-0.075,0.139-0.081c0.175-0.028,0.082-0.077,0.098,0.064c0.016,0.144-0.147,0.369-0.214,0.487   c-0.197,0.347-0.432,0.668-0.705,0.959c-0.261,0.277-0.55,0.549-0.876,0.748c-0.047,0.029-0.097,0.055-0.145,0.081   C61.741,50.554,62.047,50.141,62.199,49.923z M57.411,49.24c0.181-0.272,1.013-1.32,1.41-0.988   c0.301,0.251-0.706,1.224-0.915,1.416c-0.296,0.271-0.627,0.502-0.978,0.696C57.02,49.966,57.181,49.586,57.411,49.24z    M57.727,52.31c0.296,0.315,0.821,0.992,0.642,1.457c-0.245,0.64-0.905-0.553-1.018-0.774c-0.205-0.403-0.344-0.84-0.421-1.286   c0.006,0.001,0.013,0.002,0.019,0.003C57.236,51.869,57.499,52.067,57.727,52.31z M63.3,54.464c0.019,0.274-0.07,0.245-0.294,0.121   c-0.566-0.312-0.875-0.885-1.133-1.452c-0.118-0.26-0.234-0.531-0.301-0.81c0.336,0.196,0.704,0.35,0.976,0.632   c0.26,0.27,0.469,0.627,0.604,0.976C63.214,54.096,63.287,54.287,63.3,54.464z M68.25,53.146c0.276,0.245,0.523,0.521,0.724,0.829   c0.074,0.113,0.146,0.23,0.206,0.35c0.042,0.072,0.076,0.148,0.1,0.227c0.06,0.098,0.04,0.134-0.06,0.105   c-0.195,0.061-0.678-0.284-0.854-0.389c-0.306-0.185-0.583-0.407-0.834-0.661c-0.325-0.33-0.589-0.707-0.791-1.119   c0.16,0,0.32-0.001,0.48-0.003C67.594,52.653,67.941,52.871,68.25,53.146z M73.376,53.785c-0.276,0.209-0.977-0.601-1.131-0.784   c-0.177-0.209-0.326-0.438-0.451-0.68c0.258,0.089,0.505,0.207,0.739,0.362C72.711,52.801,73.668,53.565,73.376,53.785z    M77.679,52.031c0.375,0.264,0.823,0.75,0.864,1.233c0.016,0.185,0.023,0.203-0.186,0.186c-0.122-0.01-0.288-0.142-0.384-0.206   c-0.228-0.15-0.433-0.333-0.613-0.538c-0.276-0.314-0.472-0.674-0.603-1.063c0.001,0,0.001,0,0.002,0   C77.086,51.704,77.396,51.832,77.679,52.031z M82.669,50.853c0.224,0.123,0.441,0.26,0.648,0.409   c0.106,0.076,0.244,0.156,0.324,0.259c0.087,0.112,0.167,0.084-0.005,0.123c-0.361,0.082-0.888-0.184-1.18-0.369   c-0.288-0.181-0.516-0.418-0.697-0.693c0.069-0.018,0.138-0.035,0.206-0.053C82.207,50.621,82.441,50.728,82.669,50.853z    M86.623,46.724c-0.03,0.084-0.067,0.166-0.106,0.246c-0.084,0.177-0.181,0.347-0.287,0.512c-0.019,0.029-0.04,0.056-0.06,0.084   c0.06-0.167,0.129-0.329,0.216-0.484C86.454,46.964,86.551,46.841,86.623,46.724z M87.9,50.184   c-0.096-0.039-0.189-0.083-0.282-0.129c-0.198-0.099-0.391-0.209-0.576-0.331c-0.237-0.156-0.454-0.335-0.659-0.528   c0.312,0.063,0.609,0.184,0.876,0.36c0.175,0.115,0.333,0.254,0.472,0.411C87.791,50.035,87.853,50.107,87.9,50.184z    M90.053,48.215c0.031,0.018,0.063,0.034,0.094,0.055c0.132,0.089,0.254,0.199,0.355,0.323c0.006,0.008,0.014,0.02,0.022,0.033   c-0.098-0.064-0.192-0.132-0.279-0.212C90.176,48.35,90.113,48.284,90.053,48.215z M93.163,45.922   c-0.264,0.095-0.532,0.157-0.803,0.192c0.161-0.212,0.364-0.393,0.59-0.53c0.188-0.114,0.873-0.465,1.094-0.246   C94.185,45.476,93.307,45.87,93.163,45.922z"/>
    <path fill="#483b35" d="M46.141,50.201c-0.701,0.155-1.405,0.296-2.111,0.425c-0.105-0.835-0.435-1.617-0.982-2.27   c-0.551-0.657-1.578-1.449-2.431-0.825c-0.893,0.655-0.127,1.722,0.4,2.329c0.362,0.417,0.781,0.768,1.238,1.063   c-1.01,0.153-2.024,0.278-3.04,0.378c0.021-0.139,0.023-0.285-0.002-0.44c-0.171-1.089-1.111-2.184-1.95-2.85   c-0.013-0.011-0.027-0.017-0.041-0.026c-0.016-0.015-0.032-0.031-0.051-0.044c-0.52-0.372-1.363-0.485-1.631,0.254   c-0.236,0.65,0.236,1.372,0.598,1.877c0.368,0.514,0.82,1.003,1.341,1.375c-0.993,0.068-1.988,0.111-2.983,0.13   c-0.289-0.97-0.765-1.867-1.412-2.65c-0.533-0.644-1.693-1.89-2.578-1.072c-0.777,0.717-0.067,1.93,0.462,2.555   c0.409,0.483,0.913,0.855,1.454,1.17c-1.054-0.017-2.107-0.06-3.158-0.132c-0.013-0.013-0.028-0.025-0.044-0.036   c-0.184-0.945-0.572-1.847-1.146-2.623c-0.412-0.557-1.491-1.925-2.231-1.038c-0.586,0.702,0.231,1.852,0.652,2.429   c0.3,0.412,0.642,0.787,1.019,1.121c-1.044-0.102-2.084-0.232-3.121-0.389c-0.062-0.85-0.296-1.678-0.705-2.431   c-0.388-0.715-1.082-1.793-2.038-1.621c-0.987,0.178-0.889,1.242-0.539,1.931c0.313,0.615,0.694,1.199,1.114,1.753   c-0.929-0.175-1.853-0.373-2.773-0.592c-0.001-0.006,0-0.012,0-0.018c-0.104-0.827-0.389-1.586-0.902-2.248   c-0.413-0.532-1.185-1.356-1.943-1.05c-0.808,0.326-0.483,1.267-0.108,1.791c0.25,0.35,0.524,0.673,0.82,0.975   c-0.359-0.1-0.717-0.202-1.074-0.308c-0.444-0.133-0.887-0.272-1.328-0.415c-0.002-0.717-0.176-1.424-0.529-2.052   c-0.273-0.486-0.782-1.133-1.428-0.932c-0.706,0.22-0.583,1.011-0.356,1.532c0.125,0.286,0.277,0.558,0.451,0.815   c-0.605-0.219-1.207-0.447-1.805-0.685c-0.001-0.001-0.001-0.001-0.002-0.002c-0.043-0.652-0.237-1.293-0.603-1.839   c-0.301-0.45-0.883-0.899-1.384-0.414c-0.39,0.378-0.236,0.962-0.033,1.404c-0.16-0.071-0.319-0.145-0.478-0.217   c-0.306-0.718-0.819-1.311-1.541-1.637c-0.585-0.265-1.437-0.433-1.951,0.077c-0.586,0.582-0.08,1.317,0.479,1.663   c0.749,0.464,1.635,0.676,2.511,0.658c0.361,0.165,0.724,0.326,1.088,0.483c-0.102,0.069-0.2,0.144-0.294,0.228   c-0.384,0.348-0.85,0.994-0.672,1.545c0.226,0.702,1.004,0.437,1.463,0.165c0.501-0.297,0.914-0.73,1.193-1.239   c0.439,0.174,0.879,0.343,1.321,0.507c-0.149,0.09-0.293,0.193-0.431,0.31c-0.432,0.366-0.982,1-0.775,1.618   c0.491,1.469,2.864-0.55,3.434-1.156c0.709,0.231,1.421,0.449,2.138,0.653c-0.191,0.112-0.376,0.233-0.554,0.365   c-0.531,0.392-1.315,1.192-0.559,1.796c0.535,0.428,1.43,0.194,1.993-0.055c0.669-0.296,1.222-0.819,1.559-1.466   c0.849,0.204,1.701,0.391,2.558,0.558c-0.099,0.075-0.196,0.154-0.287,0.241c-0.541,0.514-1.131,1.464-0.78,2.228   c0.438,0.952,1.545,0.445,2.144-0.029c0.65-0.515,1.119-1.224,1.353-2.015c0.851,0.131,1.705,0.244,2.561,0.338   c-0.098,0.077-0.193,0.157-0.284,0.242c-0.528,0.498-1.141,1.439-0.466,2.08c0.652,0.619,1.521,0.073,2.054-0.41   c0.516-0.468,0.907-1.049,1.174-1.687c0.662,0.046,1.325,0.081,1.988,0.105c-0.157,0.136-0.307,0.28-0.446,0.435   c-0.487,0.547-1.428,1.783-0.662,2.469c0.739,0.663,2.062-0.274,2.653-0.758c0.685-0.562,1.202-1.294,1.526-2.112   c0.83-0.012,1.661-0.039,2.49-0.086c-0.387,0.422-0.664,0.965-0.827,1.497c-0.174,0.565-0.194,1.375,0.462,1.638   c0.639,0.256,1.374-0.286,1.783-0.735c0.412-0.452,0.673-0.999,0.906-1.558c0.13-0.312,0.291-0.687,0.313-1.05   c0.676-0.068,1.351-0.147,2.024-0.238c-0.043,0.054-0.087,0.108-0.128,0.165c-0.476,0.664-0.869,1.703-0.219,2.392   c0.661,0.701,1.527,0.218,1.995-0.429c0.54-0.748,0.841-1.628,0.958-2.536c0.797-0.143,1.592-0.301,2.383-0.476   C46.95,50.947,46.709,50.075,46.141,50.201z M13.807,47.544c-0.109-0.162-0.208-0.333-0.295-0.508   c-0.036-0.072-0.071-0.145-0.102-0.22c0.135,0.243,0.331,0.501,0.425,0.766C13.826,47.569,13.816,47.557,13.807,47.544z    M5.953,45.337c0.204-0.206,0.859,0.11,1.038,0.212c0.25,0.142,0.472,0.335,0.647,0.565c-0.247-0.031-0.491-0.085-0.732-0.168   C6.762,45.897,5.804,45.488,5.953,45.337z M9.794,48.373c-0.101,0.096-0.211,0.179-0.326,0.255   c0.096-0.124,0.211-0.237,0.337-0.329c0.045-0.033,0.093-0.06,0.14-0.087C9.898,48.267,9.848,48.322,9.794,48.373z M12.446,50.023   c-0.087,0.045-0.176,0.089-0.266,0.128c-0.018,0.008-0.036,0.014-0.054,0.02c0.037-0.061,0.072-0.122,0.097-0.152   c0.133-0.16,0.289-0.305,0.459-0.425c0.279-0.196,0.599-0.33,0.933-0.397c-0.187,0.176-0.384,0.341-0.598,0.486   C12.834,49.807,12.643,49.921,12.446,50.023z M41.176,48.252c0.398-0.332,1.229,0.714,1.41,0.988   c0.23,0.348,0.391,0.726,0.483,1.125c-0.352-0.194-0.683-0.425-0.978-0.696C41.883,49.477,40.877,48.502,41.176,48.252z    M36.718,49.313c-0.107-0.172-0.234-0.362-0.294-0.557c-0.011-0.037-0.069-0.208-0.041-0.231c0.028-0.022,0.175,0.08,0.264,0.146   c0.37,0.298,0.702,0.655,0.991,1.031c0.248,0.322,0.582,0.759,0.671,1.189c-0.266-0.157-0.508-0.33-0.742-0.55   C37.241,50.035,36.955,49.693,36.718,49.313z M31.385,49.467c-0.106-0.166-0.449-0.687-0.292-0.897   c0.283-0.378,1.474,1.141,1.634,1.372c0.246,0.355,0.452,0.73,0.622,1.121c-0.419-0.213-0.825-0.45-1.187-0.747   C31.866,50.072,31.593,49.791,31.385,49.467z M26.562,48.418c-0.023-0.17-0.011-0.146,0.035,0.072   c0.053,0.048,0.105,0.097,0.156,0.147c0.119,0.117,0.234,0.238,0.343,0.364c0.224,0.26,0.419,0.543,0.591,0.84   c0.135,0.234,0.251,0.475,0.349,0.722C27.371,49.975,26.816,49.238,26.562,48.418z M22.028,47.806   c0.515,0.258,0.909,1.115,1.114,1.62c0.158,0.389,0.261,0.793,0.316,1.205c-0.394-0.465-0.758-0.953-1.084-1.469   c-0.179-0.285-0.364-0.578-0.508-0.882C21.763,48.06,21.605,47.594,22.028,47.806z M17.036,47.579   c-0.036-0.136-0.068-0.081,0.037-0.052c0.383,0.107,0.782,0.695,0.977,1.011c0.118,0.192,0.218,0.394,0.299,0.604   c-0.213-0.189-0.417-0.39-0.607-0.603c-0.18-0.201-0.35-0.411-0.504-0.632C17.179,47.824,17.063,47.683,17.036,47.579z    M17.596,51.241c-0.301,0.203-0.855,0.489-1.235,0.403c-0.123-0.028-0.104,0.035-0.057-0.075c0.039-0.091,0.307-0.257,0.376-0.307   c0.187-0.134,0.381-0.258,0.582-0.371c0.255-0.144,0.517-0.264,0.787-0.366c0.064,0.017,0.128,0.033,0.192,0.049   C18.071,50.835,17.861,51.062,17.596,51.241z M22.638,52.706c-0.18,0.205-0.385,0.389-0.613,0.538   c-0.189,0.124-0.604,0.419-0.57,0.019c0.042-0.483,0.49-0.968,0.864-1.233c0.282-0.2,0.593-0.328,0.922-0.388   C23.111,52.032,22.914,52.393,22.638,52.706z M27.753,53.001c-0.153,0.182-0.857,0.992-1.131,0.784   c-0.292-0.221,0.663-0.982,0.843-1.102c0.233-0.155,0.48-0.274,0.739-0.362C28.078,52.562,27.93,52.791,27.753,53.001z    M32.464,53.608c-0.251,0.255-0.528,0.476-0.834,0.661c-0.166,0.1-0.661,0.45-0.854,0.389c-0.1,0.028-0.12-0.007-0.06-0.105   c0.024-0.08,0.058-0.155,0.1-0.227c0.061-0.12,0.133-0.237,0.206-0.35c0.201-0.309,0.449-0.585,0.724-0.829   c0.306-0.271,0.648-0.488,1.015-0.654c0.163,0.002,0.327,0.002,0.49,0.003C33.051,52.904,32.788,53.279,32.464,53.608z    M37.419,54.259c-0.113,0.112-0.234,0.212-0.37,0.294c-0.151,0.091-0.292,0.209-0.354,0.03c-0.1-0.289,0.22-0.836,0.357-1.075   c0.196-0.341,0.426-0.626,0.762-0.833c0.205-0.126,0.421-0.233,0.626-0.357c-0.033,0.133-0.094,0.27-0.13,0.37   C38.106,53.244,37.843,53.837,37.419,54.259z M42.647,52.993c-0.12,0.236-0.76,1.401-1.018,0.774   c-0.188-0.456,0.354-1.15,0.642-1.457c0.226-0.241,0.487-0.438,0.771-0.596c0.008-0.001,0.017-0.003,0.025-0.004   C42.99,52.155,42.852,52.59,42.647,52.993z"/>
  </g>
</svg>