<?xml version="1.0" encoding="iso-8859-1"?>
<!-- Generator: Adobe Illustrator 21.1.0, SVG Export Plug-In . SVG Version: 6.00 Build 0)  -->
<svg version="1.1" id="Layer_1" xmlns="http://www.w3.org/2000/svg" xmlns:xlink="http://www.w3.org/1999/xlink" x="0px" y="0px"
	 viewBox="0 0 101.184 99.313" style="enable-background:new 0 0 101.184 99.313;" xml:space="preserve">
<path fill="#483b35" d="M88.32,19.873H29.703c-6.161,0-11.173,4.511-11.173,10.055v14.793H7.619c-3.225,0-5.849,2.622-5.849,5.845V66.82
	c0,3.225,2.624,5.848,5.849,5.848h7.053c0.631,4.818,4.753,8.553,9.74,8.553c4.881,0,8.932-3.579,9.693-8.248h33.541
	c0.762,4.668,4.812,8.246,9.694,8.246c4.878,0,8.926-3.578,9.687-8.246h10.921c0.723,0,1.343-0.516,1.475-1.226l0.052-0.278
	c0.017-0.091,0.025-0.183,0.025-0.274V29.928C99.5,24.384,94.484,19.873,88.32,19.873z M21.53,31.428h15.15v13.371l-15.15,0.003
	V31.428z M39.68,31.428h18.65v13.367l-18.65,0.003V31.428z M61.33,31.428h18.282v13.364L61.33,44.794V31.428z M82.612,31.428H96.5
	v13.361l-13.888,0.002V31.428z M29.703,22.873H88.32c3.914,0,7.189,2.383,7.989,5.555H21.72
	C22.519,25.256,25.793,22.873,29.703,22.873z M24.412,78.22c-3.768,0-6.833-3.065-6.833-6.833s3.065-6.833,6.833-6.833
	s6.833,3.065,6.833,6.833S28.179,78.22,24.412,78.22z M77.34,78.218c-3.769,0-6.834-3.064-6.834-6.831
	c0-3.769,3.065-6.834,6.834-6.834c3.765,0,6.827,3.065,6.827,6.834C84.167,75.154,81.104,78.218,77.34,78.218z M87.053,69.972
	c-0.689-4.753-4.776-8.419-9.713-8.419c-4.941,0-9.031,3.666-9.72,8.419H34.131c-0.69-4.752-4.779-8.418-9.719-8.418
	c-4.834,0-8.856,3.51-9.673,8.113h-7.12c-1.571,0-2.849-1.277-2.849-2.848V50.566c0-1.568,1.278-2.845,2.849-2.845h12.216
	c0.004,0,0.008-0.001,0.013-0.001c0.148,0.049,0.302,0.081,0.466,0.081L96.5,47.789v22.183H87.053z"/>
</svg>
